<?xml version="1.0" encoding="utf-8"?>
<!-- Generator: Adobe Illustrator 25.4.0, SVG Export Plug-In . SVG Version: 6.00 Build 0)  -->
<svg version="1.1" id="Capa_1" xmlns="http://www.w3.org/2000/svg" xmlns:xlink="http://www.w3.org/1999/xlink" x="0px" y="0px"
	 viewBox="0 0 31.9 32" style="enable-background:new 0 0 31.9 32;" xml:space="preserve">
<style type="text/css">
	.st0{fill:#ED1C24;}
	.st1{fill:#FFFFFF;}
</style>
<g>
	<rect x="-0.2" y="-0.2" class="st0" width="32.3" height="32.3"/>
	<g>
		<path class="st1" d="M6.3,13h3.1c0.3,0,0.5,0.3,0.4,0.5l-1.7,8.8c0,0.2-0.2,0.4-0.4,0.4H5.2c-0.3,0-0.5-0.3-0.4-0.5l0.7-3.5
			L7.2,16l-0.1,0.1l-1.5,1.5L5.3,18H2.5c-0.4,0-0.6-0.5-0.3-0.8L6,13.1C6.1,13,6.2,13,6.3,13z M17,13.1L14.3,16l1-1.7l-0.7-1.1
			c-0.1-0.1-0.2-0.2-0.4-0.2h-2.8c-0.2,0-0.4,0.2-0.4,0.4l-1.7,8.8c-0.1,0.3,0.2,0.5,0.4,0.5h2.5c0.2,0,0.4-0.2,0.4-0.4l0.8-4.2
			l1.2,1.2l1.5-0.9l-0.7,3.7c-0.1,0.3,0.2,0.5,0.4,0.5h2.5c0.2,0,0.4-0.2,0.4-0.4l1.7-8.8c0.1-0.3-0.2-0.5-0.4-0.5h-2.7
			C17.2,13,17.1,13,17,13.1z M26.8,13.4l-0.2,1.1l0.6,1.6l-0.7-1l-1.4-1.9C25,13.1,24.9,13,24.7,13h-2.8c-0.2,0-0.4,0.2-0.4,0.4
			l-1.7,8.8c-0.1,0.3,0.2,0.5,0.4,0.5h2.5c0.2,0,0.4-0.2,0.4-0.4l1.1-5.4l1.5,2.2l-0.6,3c-0.1,0.3,0.2,0.5,0.4,0.5H28
			c0.2,0,0.4-0.2,0.4-0.4l1.7-8.8c0.1-0.3-0.2-0.5-0.4-0.5h-2.5C27,13,26.9,13.2,26.8,13.4z M16.4,10.3l0.7-3c0.1-0.4,0-0.8-0.3-1.1
			l0,0c-0.5-0.5-1.2-0.5-1.6,0l0,0c-0.3,0.3-0.4,0.7-0.3,1.1l0.7,3C15.6,10.8,16.3,10.8,16.4,10.3z M14,10.8l-2.1-2.3
			c-0.3-0.3-0.7-0.4-1.1-0.4h0c-0.6,0.1-1,0.7-0.9,1.3v0c0.1,0.4,0.3,0.7,0.7,0.9l2.9,1.2C14,11.7,14.4,11.2,14,10.8z M18.4,11.6
			l2.9-1.2c0.4-0.2,0.6-0.5,0.7-0.9l0,0c0.1-0.6-0.3-1.2-0.9-1.3h0c-0.4-0.1-0.8,0.1-1.1,0.4l-2.1,2.3
			C17.5,11.2,17.9,11.7,18.4,11.6z"/>
	</g>
</g>
</svg>
