<?xml version="1.0" encoding="utf-8"?>
<!-- Generator: Adobe Illustrator 25.4.0, SVG Export Plug-In . SVG Version: 6.00 Build 0)  -->
<svg version="1.1" id="Capa_1" xmlns="http://www.w3.org/2000/svg" xmlns:xlink="http://www.w3.org/1999/xlink" x="0px" y="0px"
	 viewBox="0 0 31.9 32" style="enable-background:new 0 0 31.9 32;" xml:space="preserve">
<style type="text/css">
	.st0{fill:#ED1E79;}
	.st1{fill:#103370;}
</style>
<g>
	<path class="st0" d="M14.7,12.3L13,4.4c-0.2-1,0.1-2.1,0.8-2.8l0,0c1.2-1.2,3.1-1.2,4.3,0l0,0c0.7,0.7,1,1.8,0.8,2.8l-1.7,7.9
		C16.9,13.6,15,13.6,14.7,12.3z"/>
	<path class="st0" d="M9.5,15.5L2,12.4c-1-0.4-1.6-1.3-1.8-2.3l0,0C-0.1,8.5,1,6.9,2.6,6.6l0,0c1-0.2,2.1,0.2,2.7,0.9l5.5,6
		C11.8,14.5,10.7,16,9.5,15.5z"/>
	<path class="st0" d="M22.4,15.5l7.5-3.1c1-0.4,1.6-1.3,1.8-2.3l0,0c0.3-1.6-0.8-3.2-2.5-3.5l0,0c-1-0.2-2.1,0.2-2.7,0.9l-5.5,6
		C20.1,14.5,21.1,16,22.4,15.5z"/>
</g>
<g>
	<g>
		<path class="st1" d="M7.3,20c-0.1,0.2-0.3,0.4-0.6,0.6c-0.3,0.2-0.6,0.2-1.1,0.2H4.9v1.8H3.6v-5.1h2c0.4,0,0.8,0.1,1,0.2
			c0.3,0.1,0.5,0.3,0.6,0.6c0.1,0.2,0.2,0.5,0.2,0.9C7.5,19.5,7.4,19.7,7.3,20z M6.1,19.6c0.1-0.1,0.2-0.3,0.2-0.5
			c0-0.2-0.1-0.4-0.2-0.5c-0.1-0.1-0.3-0.2-0.5-0.2H4.9v1.3h0.7C5.8,19.8,6,19.7,6.1,19.6z"/>
		<path class="st1" d="M12,20.9H9.2c0,0.3,0.1,0.4,0.2,0.6c0.1,0.1,0.3,0.2,0.5,0.2c0.3,0,0.5-0.1,0.6-0.4h1.3
			c-0.1,0.3-0.2,0.5-0.4,0.7c-0.2,0.2-0.4,0.4-0.7,0.5c-0.3,0.1-0.6,0.2-0.9,0.2c-0.4,0-0.8-0.1-1.1-0.3c-0.3-0.2-0.6-0.4-0.7-0.7
			C8,21.4,7.9,21,7.9,20.6c0-0.4,0.1-0.8,0.3-1.1c0.2-0.3,0.4-0.6,0.7-0.7c0.3-0.2,0.7-0.3,1.1-0.3c0.4,0,0.7,0.1,1.1,0.2
			c0.3,0.2,0.5,0.4,0.7,0.7s0.3,0.7,0.3,1.1C12,20.6,12,20.8,12,20.9z M10.7,20.2c0-0.2-0.1-0.4-0.2-0.5c-0.1-0.1-0.3-0.2-0.5-0.2
			c-0.2,0-0.4,0.1-0.5,0.2c-0.1,0.1-0.2,0.3-0.3,0.5H10.7z"/>
		<path class="st1" d="M13.4,22.4c-0.3-0.2-0.6-0.4-0.8-0.7c-0.2-0.3-0.3-0.7-0.3-1.1c0-0.4,0.1-0.8,0.3-1.1
			c0.2-0.3,0.4-0.6,0.8-0.7c0.3-0.2,0.7-0.3,1.1-0.3s0.8,0.1,1.1,0.3c0.3,0.2,0.6,0.4,0.8,0.7c0.2,0.3,0.3,0.7,0.3,1.1
			c0,0.4-0.1,0.8-0.3,1.1c-0.2,0.3-0.4,0.6-0.8,0.7c-0.3,0.2-0.7,0.3-1.1,0.3C14.1,22.7,13.8,22.6,13.4,22.4z M15.1,21.3
			c0.2-0.2,0.3-0.4,0.3-0.8c0-0.3-0.1-0.6-0.2-0.8c-0.2-0.2-0.4-0.3-0.6-0.3c-0.2,0-0.4,0.1-0.6,0.3c-0.2,0.2-0.2,0.4-0.2,0.8
			c0,0.3,0.1,0.6,0.2,0.8c0.2,0.2,0.4,0.3,0.6,0.3C14.8,21.6,15,21.5,15.1,21.3z"/>
		<path class="st1" d="M19.1,18.7c0.2-0.1,0.5-0.2,0.8-0.2c0.3,0,0.6,0.1,0.9,0.3c0.3,0.2,0.5,0.4,0.6,0.7c0.2,0.3,0.2,0.7,0.2,1.1
			c0,0.4-0.1,0.8-0.2,1.1c-0.2,0.3-0.4,0.6-0.6,0.7c-0.3,0.2-0.6,0.3-0.9,0.3c-0.3,0-0.5-0.1-0.7-0.2c-0.2-0.1-0.4-0.3-0.5-0.5v2.5
			h-1.2v-6h1.2v0.6C18.7,18.9,18.9,18.8,19.1,18.7z M20.1,19.9c-0.2-0.2-0.4-0.3-0.6-0.3c-0.2,0-0.5,0.1-0.6,0.3
			c-0.2,0.2-0.3,0.4-0.3,0.7c0,0.3,0.1,0.6,0.3,0.7c0.2,0.2,0.4,0.3,0.6,0.3s0.5-0.1,0.6-0.3c0.2-0.2,0.3-0.4,0.3-0.7
			S20.3,20,20.1,19.9z"/>
		<path class="st1" d="M23.5,17.2v5.4h-1.2v-5.4H23.5z"/>
		<path class="st1" d="M28.3,20.9h-2.8c0,0.3,0.1,0.4,0.2,0.6c0.1,0.1,0.3,0.2,0.5,0.2c0.3,0,0.5-0.1,0.6-0.4h1.3
			c-0.1,0.3-0.2,0.5-0.4,0.7c-0.2,0.2-0.4,0.4-0.7,0.5c-0.3,0.1-0.6,0.2-0.9,0.2c-0.4,0-0.8-0.1-1.1-0.3c-0.3-0.2-0.6-0.4-0.7-0.7
			c-0.2-0.3-0.3-0.7-0.3-1.1c0-0.4,0.1-0.8,0.3-1.1c0.2-0.3,0.4-0.6,0.7-0.7c0.3-0.2,0.7-0.3,1.1-0.3c0.4,0,0.7,0.1,1.1,0.2
			c0.3,0.2,0.5,0.4,0.7,0.7c0.2,0.3,0.3,0.7,0.3,1.1C28.3,20.6,28.3,20.8,28.3,20.9z M27,20.2c0-0.2-0.1-0.4-0.2-0.5
			c-0.1-0.1-0.3-0.2-0.5-0.2c-0.2,0-0.4,0.1-0.5,0.2c-0.1,0.1-0.2,0.3-0.3,0.5H27z"/>
	</g>
	<g>
		<path class="st1" d="M7.6,24.3l-1.3,5.1H4.7l-0.8-3.4l-0.8,3.4H1.6l-1.3-5.1h1.3L2.3,28l0.9-3.7h1.4L5.5,28l0.7-3.7H7.6z"/>
		<path class="st1" d="M8.2,26.3c0.2-0.3,0.4-0.6,0.6-0.7c0.3-0.2,0.6-0.3,0.9-0.3c0.3,0,0.5,0.1,0.8,0.2c0.2,0.1,0.4,0.3,0.5,0.5
			v-0.6h1.2v4.1H11v-0.6c-0.1,0.2-0.3,0.3-0.5,0.5c-0.2,0.1-0.5,0.2-0.8,0.2c-0.3,0-0.6-0.1-0.9-0.3c-0.3-0.2-0.5-0.4-0.6-0.7
			C8,28.2,8,27.8,8,27.4C8,27,8,26.6,8.2,26.3z M10.8,26.7c-0.2-0.2-0.4-0.3-0.6-0.3s-0.5,0.1-0.6,0.3c-0.2,0.2-0.3,0.4-0.3,0.7
			c0,0.3,0.1,0.6,0.3,0.7c0.2,0.2,0.4,0.3,0.6,0.3s0.5-0.1,0.6-0.3s0.3-0.4,0.3-0.7C11,27.1,10.9,26.8,10.8,26.7z"/>
		<path class="st1" d="M15.7,29.4l-1.2-1.7v1.7h-1.2V24h1.2v3l1.2-1.7h1.5l-1.7,2l1.7,2H15.7z"/>
		<path class="st1" d="M21.5,27.7h-2.8c0,0.3,0.1,0.4,0.2,0.6c0.1,0.1,0.3,0.2,0.5,0.2c0.3,0,0.5-0.1,0.7-0.4h1.3
			c-0.1,0.3-0.2,0.5-0.4,0.7c-0.2,0.2-0.4,0.4-0.7,0.5s-0.6,0.2-0.9,0.2c-0.4,0-0.8-0.1-1.1-0.3c-0.3-0.2-0.6-0.4-0.7-0.7
			c-0.2-0.3-0.3-0.7-0.3-1.1c0-0.4,0.1-0.8,0.3-1.1c0.2-0.3,0.4-0.6,0.7-0.7c0.3-0.2,0.7-0.3,1.1-0.3c0.4,0,0.7,0.1,1.1,0.2
			c0.3,0.2,0.5,0.4,0.7,0.7c0.2,0.3,0.3,0.7,0.3,1.1C21.5,27.4,21.5,27.6,21.5,27.7z M20.2,27c0-0.2-0.1-0.4-0.2-0.5
			c-0.1-0.1-0.3-0.2-0.5-0.2c-0.2,0-0.4,0.1-0.5,0.2c-0.1,0.1-0.2,0.3-0.3,0.5H20.2z"/>
		<path class="st1" d="M23.4,24.3v3.1c0,0.3,0.1,0.5,0.2,0.7c0.2,0.2,0.4,0.2,0.7,0.2c0.3,0,0.5-0.1,0.7-0.2
			c0.2-0.2,0.2-0.4,0.2-0.7v-3.1h1.2v3.1c0,0.5-0.1,0.8-0.3,1.2c-0.2,0.3-0.5,0.6-0.8,0.7c-0.3,0.2-0.7,0.2-1.1,0.2
			c-0.4,0-0.8-0.1-1.1-0.2c-0.3-0.2-0.6-0.4-0.8-0.7c-0.2-0.3-0.3-0.7-0.3-1.2v-3.1H23.4z"/>
		<path class="st1" d="M29.1,25.5c0.2-0.1,0.5-0.2,0.8-0.2c0.3,0,0.6,0.1,0.9,0.3c0.3,0.2,0.5,0.4,0.6,0.7c0.2,0.3,0.2,0.7,0.2,1.1
			c0,0.4-0.1,0.8-0.2,1.1c-0.2,0.3-0.4,0.6-0.6,0.7c-0.3,0.2-0.6,0.3-0.9,0.3c-0.3,0-0.5-0.1-0.7-0.2c-0.2-0.1-0.4-0.3-0.5-0.5v2.5
			h-1.2v-6h1.2v0.6C28.7,25.7,28.9,25.6,29.1,25.5z M30.1,26.7c-0.2-0.2-0.4-0.3-0.6-0.3c-0.2,0-0.5,0.1-0.6,0.3
			c-0.2,0.2-0.3,0.4-0.3,0.7c0,0.3,0.1,0.6,0.3,0.7c0.2,0.2,0.4,0.3,0.6,0.3s0.5-0.1,0.6-0.3c0.2-0.2,0.3-0.4,0.3-0.7
			C30.4,27.1,30.3,26.8,30.1,26.7z"/>
	</g>
</g>
</svg>
